<svg width="1136" height="142" viewBox="0 0 1136 142" fill="none" xmlns="http://www.w3.org/2000/svg">
    <path d="M127.218 0.00257111H19.0953C18.9901 0.000858638 18.885 5.48268e-08 18.7798 0C8.40647 0.00142713 -0.00117376 8.18115 1.22909e-07 18.2698V123.428C0.0343362 133.671 8.56349 141.967 19.0953 142H127.218C137.627 141.802 145.968 133.554 146 123.428V18.2698C146 8.18115 137.591 0.00257111 127.218 0.00257111Z" fill="black"/>
    <path d="M292.218 0.00257111H184.095C183.99 0.000858638 183.885 5.48268e-08 183.78 0C173.406 0.00142713 164.999 8.18115 165 18.2698V123.428C165.034 133.671 173.563 141.967 184.095 142H292.218C302.627 141.802 310.968 133.554 311 123.428V18.2698C311 8.18115 302.591 0.00257111 292.218 0.00257111Z" fill="black"/>
    <path d="M223.989 101H208.875L228.506 42.8182H247.227L266.858 101H251.744L238.08 57.4773H237.625L223.989 101ZM221.972 78.1023H253.562V88.7841H221.972V78.1023Z" fill="white"/>
    <path d="M457.218 0.00257111H349.095C348.99 0.000858638 348.885 5.48268e-08 348.78 0C338.406 0.00142713 329.999 8.18115 330 18.2698V123.428C330.034 133.671 338.563 141.967 349.095 142H457.218C467.627 141.802 475.968 133.554 476 123.428V18.2698C476 8.18115 467.591 0.00257111 457.218 0.00257111Z" fill="black"/>
    <path d="M622.218 0.00257111H514.095C513.99 0.000858638 513.885 5.48268e-08 513.78 0C503.406 0.00142713 494.999 8.18115 495 18.2698V123.428C495.034 133.671 503.563 141.967 514.095 142H622.218C632.627 141.802 640.968 133.554 641 123.428V18.2698C641 8.18115 632.591 0.00257111 622.218 0.00257111Z" fill="black"/>
    <path d="M622.218 0.00257111H514.095C513.99 0.000858638 513.885 5.48268e-08 513.78 0C503.406 0.00142713 494.999 8.18115 495 18.2698V123.428C495.034 133.671 503.563 141.967 514.095 142H622.218C632.627 141.802 640.968 133.554 641 123.428V18.2698C641 8.18115 632.591 0.00257111 622.218 0.00257111Z" fill="black"/>
    <path d="M391.636 42.8182L402.261 61.1989H402.716L413.455 42.8182H429.193L411.636 71.9091L429.761 101H413.625L402.716 82.4205H402.261L391.352 101H375.33L393.369 71.9091L375.784 42.8182H391.636Z" fill="white"/>
    <path d="M543.352 101L526.42 42.8182H541.96L550.739 80.9432H551.222L561.25 42.8182H573.92L583.949 81.0284H584.432L593.239 42.8182H608.75L591.847 101H578.295L567.812 65.7159H567.358L556.875 101H543.352Z" fill="white"/>
    <path d="M787.218 0.00257111H679.095C678.99 0.000858638 678.885 5.48268e-08 678.78 0C668.406 0.00142713 659.999 8.18115 660 18.2698V123.428C660.034 133.671 668.563 141.967 679.095 142H787.218C797.627 141.802 805.968 133.554 806 123.428V18.2698C806 8.18115 797.591 0.00257111 787.218 0.00257111Z" fill="black"/>
    <path d="M787.218 0.00257111H679.095C678.99 0.000858638 678.885 5.48268e-08 678.78 0C668.406 0.00142713 659.999 8.18115 660 18.2698V123.428C660.034 133.671 668.563 141.967 679.095 142H787.218C797.627 141.802 805.968 133.554 806 123.428V18.2698C806 8.18115 797.591 0.00257111 787.218 0.00257111Z" fill="black"/>
    <path d="M712.403 101V42.8182H752.972V54.2386H726.466V66.1705H750.898V77.6193H726.466V89.5795H752.972V101H712.403Z" fill="white"/>
    <path d="M952.218 0.00257111H844.095C843.99 0.000858638 843.885 5.48268e-08 843.78 0C833.406 0.00142713 824.999 8.18115 825 18.2698V123.428C825.034 133.671 833.563 141.967 844.095 142H952.218C962.627 141.802 970.968 133.554 971 123.428V18.2698C971 8.18115 962.591 0.00257111 952.218 0.00257111Z" fill="black"/>
    <path d="M952.218 0.00257111H844.095C843.99 0.000858638 843.885 5.48268e-08 843.78 0C833.406 0.00142713 824.999 8.18115 825 18.2698V123.428C825.034 133.671 833.563 141.967 844.095 142H952.218C962.627 141.802 970.968 133.554 971 123.428V18.2698C971 8.18115 962.591 0.00257111 952.218 0.00257111Z" fill="black"/>
    <path d="M879.403 101V42.8182H893.466V89.5795H917.67V101H879.403Z" fill="white"/>
    <path d="M1117.22 0.00257111H1009.1C1008.99 0.000858638 1008.88 5.48268e-08 1008.78 0C998.406 0.00142713 989.999 8.18115 990 18.2698V123.428C990.034 133.671 998.563 141.967 1009.1 142H1117.22C1127.63 141.802 1135.97 133.554 1136 123.428V18.2698C1136 8.18115 1127.59 0.00257111 1117.22 0.00257111Z" fill="black"/>
    <path d="M1117.22 0.00257111H1009.1C1008.99 0.000858638 1008.88 5.48268e-08 1008.78 0C998.406 0.00142713 989.999 8.18115 990 18.2698V123.428C990.034 133.671 998.563 141.967 1009.1 142H1117.22C1127.63 141.802 1135.97 133.554 1136 123.428V18.2698C1136 8.18115 1127.59 0.00257111 1117.22 0.00257111Z" fill="black"/>
    <path d="M1044.4 101V42.8182H1058.47V89.5795H1082.67V101H1044.4Z" fill="white"/>
    <path d="M40.4034 42.8182H57.8182L72.5909 78.8409H73.2727L88.0455 42.8182H105.46V101H91.767V65.2614H91.2841L77.3068 100.631H68.5568L54.5795 65.0625H54.0966V101H40.4034V42.8182Z" fill="white"/>
</svg>
